<svg  xmlns="http://www.w3.org/2000/svg" xmlns:xlink="http://www.w3.org/1999/xlink" width="24px" height="20px"><path fill-rule="evenodd"  fill="rgb(7, 117, 212)" d="M14.157,9.986 C15.874,9.145 17.068,7.340 17.068,5.246 C17.068,2.354 14.794,0.000 12.000,0.000 C9.206,0.000 6.932,2.354 6.932,5.246 C6.932,7.340 8.126,9.145 9.843,9.986 C5.568,11.079 3.591,15.408 3.591,19.475 C3.591,19.766 3.819,20.000 4.099,20.000 C4.380,20.000 4.607,19.765 4.607,19.475 C4.607,15.282 6.920,10.769 11.999,10.769 C17.079,10.769 19.392,15.282 19.392,19.475 C19.392,19.766 19.620,20.000 19.900,20.000 C20.180,20.000 20.408,19.765 20.408,19.475 C20.409,15.408 18.433,11.078 14.157,9.986 ZM7.948,5.246 C7.948,2.933 9.765,1.052 12.000,1.052 C14.235,1.052 16.052,2.933 16.052,5.246 C16.052,7.558 14.235,9.439 12.000,9.439 C9.765,9.439 7.948,7.558 7.948,5.246 ZM5.812,9.647 C6.043,9.625 6.229,9.442 6.265,9.205 C6.301,8.968 6.176,8.734 5.963,8.639 C5.861,8.594 3.471,7.504 3.661,4.942 C3.879,2.025 6.948,1.672 7.080,1.658 C7.359,1.630 7.563,1.374 7.536,1.085 C7.510,0.795 7.265,0.584 6.983,0.611 C5.583,0.749 2.875,1.815 2.647,4.862 C2.508,6.756 3.492,8.118 4.465,8.916 C2.773,9.526 0.000,11.260 0.343,16.033 C0.363,16.309 0.586,16.521 0.849,16.521 C0.862,16.521 0.874,16.521 0.887,16.519 C1.167,16.497 1.377,16.245 1.356,15.955 C0.944,10.217 5.615,9.667 5.812,9.647 ZM19.534,8.916 C20.508,8.116 21.492,6.756 21.350,4.862 C21.124,1.816 18.417,0.750 17.017,0.611 C16.735,0.585 16.489,0.796 16.463,1.084 C16.436,1.373 16.641,1.630 16.920,1.658 C17.051,1.671 20.119,2.007 20.337,4.942 C20.528,7.503 18.138,8.594 18.038,8.638 C17.824,8.732 17.699,8.964 17.734,9.201 C17.768,9.439 17.955,9.623 18.186,9.647 C18.385,9.666 23.055,10.216 22.643,15.954 C22.622,16.243 22.832,16.496 23.112,16.518 C23.125,16.519 23.138,16.519 23.151,16.519 C23.414,16.519 23.636,16.308 23.656,16.032 C24.000,11.260 21.227,9.526 19.534,8.916 Z"/></svg>