<svg  xmlns="http://www.w3.org/2000/svg" xmlns:xlink="http://www.w3.org/1999/xlink" width="98px" height="98px"><path fill-rule="evenodd"  fill="rgb(0, 113, 211)" d="M49.000,-0.000 C22.050,-0.000 0.000,22.050 0.000,49.000 C0.000,75.950 22.050,98.000 49.000,98.000 C75.950,98.000 98.000,75.950 98.000,49.000 C98.000,22.050 75.950,-0.000 49.000,-0.000 L49.000,-0.000 ZM50.225,14.700 C68.906,14.700 68.906,28.788 68.906,36.750 C68.906,44.713 61.556,59.413 50.225,59.719 C39.200,59.719 31.544,45.019 31.544,36.750 C31.544,28.788 31.544,14.700 50.225,14.700 L50.225,14.700 ZM49.000,95.244 C34.913,95.244 22.050,88.812 13.475,78.706 C14.700,75.644 16.231,72.275 18.375,70.438 C22.969,66.762 36.750,60.637 36.750,60.637 L45.325,77.175 L46.856,73.194 L44.406,68.294 L49.306,63.394 L54.206,68.294 L52.062,73.500 L53.288,77.481 L62.169,61.250 C62.169,61.250 75.950,67.375 80.544,71.050 C82.687,72.581 84.219,75.338 85.137,77.787 C76.869,88.506 63.700,95.244 49.000,95.244 L49.000,95.244 Z"/></svg>