<?xml version="1.0" standalone="no"?><!DOCTYPE svg PUBLIC "-//W3C//DTD SVG 1.1//EN" "http://www.w3.org/Graphics/SVG/1.1/DTD/svg11.dtd"><svg class="icon" width="200px" height="200.00px" viewBox="0 0 1024 1024" version="1.1" xmlns="http://www.w3.org/2000/svg"><path d="M826.289 124.411l-314.289 314.278-314.289-314.278c-16.933-16.933-44.389-16.933-61.321 0-16.933 16.933-16.933 44.387 0 61.318l314.289 314.277-314.289 314.279c-16.933 16.933-16.933 44.387 0 61.318 16.933 16.933 44.389 16.933 61.321 0l314.289-314.277 314.289 314.277c16.933 16.933 44.388 16.933 61.323 0s16.933-44.387 0-61.318l-314.289-314.278 314.289-314.277c16.933-16.933 16.933-44.387 0-61.318-16.934-16.931-44.389-16.931-61.323-0.001z" /></svg>