<svg  xmlns="http://www.w3.org/2000/svg" xmlns:xlink="http://www.w3.org/1999/xlink" width="10px" height="14px"><path fill-rule="evenodd"  fill="rgb(249, 80, 78)" d="M4.093,0.277 C3.767,-0.000 3.273,0.208 3.227,0.637 C3.127,1.544 2.893,2.936 2.367,3.947 C1.533,5.553 -0.000,6.273 -0.000,8.869 C-0.000,11.466 1.667,14.000 5.000,14.000 C8.333,14.000 10.000,11.473 10.000,8.869 C10.000,7.028 9.160,5.622 8.380,4.646 C8.080,4.272 7.500,4.459 7.440,4.937 C7.340,5.809 7.060,6.771 6.300,7.056 C6.100,7.132 5.900,6.931 5.953,6.716 C6.887,3.254 5.173,1.191 4.093,0.277 Z"/></svg>