<svg  xmlns="http://www.w3.org/2000/svg" xmlns:xlink="http://www.w3.org/1999/xlink" width="12px" height="16px"><path fill-rule="evenodd"  fill="rgb(171, 171, 171)" d="M9.825,16.000 L2.723,16.000 C0.976,16.000 0.000,15.625 0.000,13.648 L0.000,7.881 C0.000,7.617 0.249,7.403 0.519,7.403 L1.959,7.403 L1.959,4.136 C1.959,1.933 3.968,0.000 6.224,0.000 L6.254,0.000 C8.493,0.000 10.286,1.856 10.286,4.136 L10.286,7.403 L11.539,7.403 C11.810,7.403 12.000,7.617 12.000,7.881 L12.000,13.648 C12.000,15.355 11.839,16.000 9.825,16.000 ZM9.306,4.136 C9.306,2.412 7.924,0.955 6.254,0.955 L6.224,0.955 C4.489,0.955 2.939,2.442 2.939,4.136 L2.939,7.403 L9.306,7.403 L9.306,4.136 ZM11.021,8.358 L0.980,8.358 L0.980,13.648 C0.980,14.862 1.233,15.045 2.723,15.045 L9.825,15.045 C11.050,15.045 11.021,15.045 11.021,13.648 L11.021,8.358 ZM3.458,9.552 L2.449,9.552 L2.449,11.940 C2.449,12.072 2.339,12.179 2.204,12.179 C2.069,12.179 1.959,12.072 1.959,11.940 L1.959,9.314 C1.959,9.181 2.098,9.075 2.233,9.075 L3.458,9.075 C3.593,9.075 3.703,9.181 3.703,9.314 C3.703,9.445 3.593,9.552 3.458,9.552 ZM2.204,12.657 C2.339,12.657 2.449,12.764 2.449,12.895 L2.449,13.134 C2.449,13.266 2.339,13.373 2.204,13.373 C2.069,13.373 1.959,13.266 1.959,13.134 L1.959,12.895 C1.959,12.764 2.069,12.657 2.204,12.657 Z"/></svg>