<svg  xmlns="http://www.w3.org/2000/svg" xmlns:xlink="http://www.w3.org/1999/xlink" width="20px" height="20px"><path fill-rule="evenodd"  fill="rgb(255, 255, 255)" d="M18.519,20.000 L1.481,20.000 C0.667,20.000 0.000,19.345 0.000,18.545 L0.000,8.000 C0.000,7.200 0.667,6.545 1.481,6.545 L1.481,7.273 C1.074,7.273 0.741,7.600 0.741,8.000 L0.741,17.091 L19.259,17.091 L19.259,8.000 C19.259,7.600 18.926,7.273 18.519,7.273 L17.778,7.273 L17.778,6.545 L18.519,6.545 C19.333,6.545 20.000,7.200 20.000,8.000 L20.000,18.545 C20.000,19.345 19.333,20.000 18.519,20.000 ZM19.259,17.818 L0.741,17.818 L0.741,18.545 C0.741,18.945 1.074,19.273 1.481,19.273 L18.519,19.273 C18.926,19.273 19.259,18.945 19.259,18.545 L19.259,17.818 ZM16.296,10.182 L17.037,10.182 L17.037,10.909 L16.296,10.909 L16.296,10.182 ZM16.296,8.727 L17.037,8.727 L17.037,9.455 L16.296,9.455 L16.296,8.727 ZM16.296,0.727 L4.815,0.727 L4.815,1.455 L4.074,1.455 L4.074,0.727 C4.074,0.327 4.407,-0.000 4.815,-0.000 L16.296,-0.000 C16.704,-0.000 17.037,0.327 17.037,0.727 L17.037,8.000 L16.296,8.000 L16.296,0.727 ZM15.185,12.364 L14.444,12.364 L14.444,11.636 L15.185,11.636 L15.185,12.364 ZM4.444,3.273 L4.444,4.000 L3.704,4.000 L3.704,3.273 L4.444,3.273 ZM5.926,3.273 L5.926,4.000 L5.185,4.000 L5.185,3.273 L5.926,3.273 ZM7.407,3.273 L7.407,4.000 L6.667,4.000 L6.667,3.273 L7.407,3.273 ZM3.704,10.546 L4.593,8.437 L5.815,8.946 C5.963,8.764 6.111,8.618 6.296,8.473 L5.778,7.273 L7.926,6.400 L8.444,7.600 C8.667,7.564 8.889,7.564 9.111,7.600 L9.630,6.400 L11.778,7.273 L11.259,8.473 C11.444,8.618 11.593,8.764 11.741,8.946 L12.963,8.437 L13.852,10.546 L12.630,11.055 C12.667,11.273 12.667,11.491 12.630,11.709 L13.852,12.218 L12.963,14.327 L11.741,13.818 C11.593,14.000 11.444,14.145 11.259,14.291 L11.778,15.491 L9.630,16.364 L9.111,15.164 C8.889,15.200 8.667,15.200 8.444,15.164 L7.926,16.364 L5.778,15.491 L6.296,14.291 C6.111,14.145 5.963,14.000 5.815,13.818 L4.593,14.327 L3.704,12.218 L4.926,11.709 C4.889,11.491 4.889,11.273 4.926,11.055 L3.704,10.546 ZM5.667,10.909 C5.593,11.236 5.593,11.564 5.667,11.927 L5.704,12.218 L4.667,12.618 L5.000,13.382 L6.074,12.945 L6.259,13.164 C6.444,13.455 6.704,13.673 7.000,13.891 L7.222,14.073 L6.741,15.091 L7.518,15.418 L7.963,14.364 L8.259,14.400 C8.593,14.473 8.926,14.473 9.296,14.400 L9.556,14.364 L10.000,15.418 L10.778,15.091 L10.333,14.036 L10.556,13.855 C10.852,13.673 11.074,13.418 11.296,13.127 L11.481,12.909 L12.556,13.346 L12.889,12.582 L11.815,12.145 L11.852,11.855 C11.926,11.527 11.926,11.200 11.852,10.836 L11.815,10.546 L12.889,10.109 L12.556,9.345 L11.481,9.782 L11.296,9.564 C11.111,9.273 10.852,9.054 10.556,8.836 L10.333,8.654 L10.778,7.600 L10.000,7.273 L9.556,8.327 L9.259,8.291 C8.926,8.218 8.593,8.218 8.222,8.291 L7.926,8.327 L7.482,7.273 L6.741,7.673 L7.185,8.727 L6.963,8.909 C6.667,9.091 6.444,9.345 6.222,9.637 L6.037,9.855 L4.963,9.418 L4.630,10.182 L5.704,10.618 L5.667,10.909 ZM8.037,9.637 C9.000,9.236 10.111,9.709 10.519,10.655 C10.704,11.127 10.704,11.636 10.519,12.073 C10.333,12.546 9.963,12.909 9.481,13.091 C9.259,13.200 9.000,13.237 8.778,13.237 C8.037,13.237 7.333,12.800 7.000,12.073 C6.593,11.127 7.074,10.037 8.037,9.637 ZM7.704,11.818 C7.963,12.400 8.630,12.691 9.222,12.436 C9.519,12.327 9.741,12.109 9.852,11.818 C9.963,11.527 9.963,11.236 9.852,10.945 C9.667,10.509 9.222,10.254 8.778,10.254 C8.630,10.254 8.481,10.291 8.333,10.327 C7.741,10.582 7.444,11.236 7.704,11.818 ZM15.185,2.546 L15.185,10.909 L14.444,10.909 L14.444,2.546 L2.963,2.546 L2.963,4.727 L12.222,4.727 L12.222,5.454 L2.963,5.454 L2.963,15.273 L2.222,15.273 L2.222,5.454 L2.222,4.727 L2.222,2.546 C2.222,2.146 2.556,1.818 2.963,1.818 L14.444,1.818 C14.852,1.818 15.185,2.146 15.185,2.546 Z"/></svg>