<svg  xmlns="http://www.w3.org/2000/svg" xmlns:xlink="http://www.w3.org/1999/xlink" width="20px" height="20px"><path fill-rule="evenodd"  fill="rgb(255, 255, 255)" d="M19.250,14.962 L19.250,19.553 C19.250,19.798 19.051,19.998 18.806,19.998 C18.562,19.998 18.363,19.798 18.363,19.553 L18.363,14.960 C17.912,14.778 17.613,14.345 17.613,13.863 C17.613,13.381 17.912,12.948 18.363,12.766 L18.363,11.883 C18.363,11.636 18.562,11.436 18.806,11.436 C19.051,11.436 19.250,11.637 19.250,11.883 L19.250,12.766 C19.703,12.950 20.000,13.383 20.000,13.865 C20.000,14.347 19.701,14.780 19.250,14.962 ZM19.082,13.585 C19.006,13.510 18.908,13.471 18.806,13.471 C18.705,13.471 18.607,13.510 18.533,13.585 C18.455,13.659 18.414,13.759 18.414,13.865 C18.414,13.971 18.457,14.071 18.533,14.145 C18.607,14.219 18.705,14.259 18.806,14.259 C18.908,14.259 19.006,14.218 19.080,14.145 C19.158,14.069 19.199,13.971 19.199,13.865 C19.199,13.759 19.158,13.659 19.082,13.585 ZM16.183,16.674 L16.183,19.553 C16.183,19.798 15.984,19.998 15.737,19.998 C15.493,19.998 15.294,19.798 15.294,19.553 L15.294,16.674 C14.843,16.491 14.544,16.059 14.544,15.577 C14.544,15.095 14.843,14.664 15.294,14.480 L15.294,11.883 C15.294,11.636 15.493,11.436 15.737,11.436 C15.984,11.436 16.183,11.637 16.183,11.883 L16.183,14.480 C16.636,14.662 16.933,15.095 16.933,15.577 C16.933,16.059 16.634,16.491 16.183,16.674 ZM16.013,15.297 C15.937,15.224 15.839,15.183 15.737,15.183 C15.636,15.183 15.538,15.224 15.464,15.297 C15.388,15.373 15.345,15.473 15.345,15.577 C15.345,15.683 15.388,15.783 15.464,15.857 C15.538,15.932 15.634,15.971 15.737,15.971 C15.841,15.971 15.939,15.929 16.013,15.857 C16.089,15.783 16.132,15.683 16.130,15.577 C16.130,15.471 16.089,15.371 16.013,15.297 ZM12.813,1.070 L1.065,1.070 L1.065,16.063 L9.373,16.063 C9.393,16.429 9.439,16.787 9.517,17.134 L0.531,17.134 C0.240,17.134 0.008,16.901 0.000,16.611 L0.000,0.523 C0.008,0.235 0.240,-0.000 0.531,-0.000 L13.346,-0.000 C13.641,-0.000 13.880,0.239 13.882,0.535 L13.882,9.606 C13.509,9.718 13.153,9.867 12.813,10.043 L12.813,1.070 ZM9.072,12.313 C9.072,13.496 8.117,14.454 6.937,14.454 C5.757,14.454 4.802,13.496 4.802,12.313 C4.802,11.133 5.757,10.172 6.937,10.172 C8.117,10.172 9.072,11.133 9.072,12.313 ZM5.868,12.313 C5.868,12.905 6.347,13.385 6.937,13.385 C7.527,13.385 8.006,12.903 8.006,12.313 C8.006,11.724 7.527,11.242 6.937,11.242 C6.347,11.242 5.868,11.724 5.868,12.313 ZM2.667,10.709 C2.962,10.709 3.200,10.948 3.200,11.244 C3.200,11.540 2.962,11.779 2.667,11.779 C2.372,11.779 2.133,11.542 2.133,11.244 C2.133,10.948 2.372,10.709 2.667,10.709 ZM2.133,2.676 C2.133,2.382 2.372,2.141 2.667,2.141 L11.211,2.141 C11.506,2.141 11.745,2.380 11.745,2.676 L11.745,8.031 C11.745,8.327 11.504,8.566 11.209,8.564 L2.667,8.564 C2.372,8.564 2.133,8.327 2.133,8.029 L2.133,2.676 ZM3.200,7.495 L5.868,7.495 C5.868,7.330 5.906,7.175 5.972,7.036 L4.397,5.458 C4.116,5.177 4.058,4.780 4.266,4.570 C4.476,4.360 4.870,4.419 5.151,4.699 L6.874,6.427 C6.896,6.425 6.915,6.425 6.937,6.425 C7.527,6.425 8.006,6.903 8.006,7.495 L10.676,7.495 L10.676,3.212 L3.200,3.212 L3.200,7.495 ZM11.211,10.709 C11.360,10.709 11.493,10.770 11.590,10.868 C11.686,10.964 11.745,11.097 11.745,11.244 C11.745,11.540 11.504,11.779 11.213,11.779 C11.067,11.779 10.936,11.720 10.840,11.626 C10.740,11.530 10.678,11.395 10.678,11.244 C10.678,10.950 10.916,10.709 11.211,10.709 ZM12.200,16.194 L12.200,11.884 C12.200,11.637 12.399,11.438 12.643,11.438 C12.889,11.438 13.089,11.639 13.089,11.884 L13.089,16.194 C13.542,16.376 13.839,16.809 13.839,17.291 C13.839,17.773 13.540,18.206 13.089,18.388 L13.089,19.555 C13.089,19.800 12.889,20.000 12.643,20.000 C12.399,20.000 12.200,19.800 12.200,19.555 L12.200,18.388 C11.748,18.206 11.449,17.773 11.449,17.291 C11.449,16.809 11.748,16.376 12.200,16.194 ZM12.370,17.571 C12.444,17.645 12.540,17.685 12.643,17.685 C12.747,17.685 12.844,17.644 12.919,17.571 C12.995,17.497 13.038,17.397 13.036,17.291 C13.036,17.185 12.995,17.085 12.919,17.011 C12.842,16.938 12.745,16.897 12.643,16.897 C12.542,16.897 12.444,16.938 12.370,17.011 C12.293,17.087 12.250,17.185 12.250,17.291 C12.250,17.397 12.293,17.497 12.370,17.571 Z"/></svg>