<svg  xmlns="http://www.w3.org/2000/svg" xmlns:xlink="http://www.w3.org/1999/xlink" width="20px" height="20px"><path fill-rule="evenodd"  fill="rgb(255, 255, 255)" d="M19.649,9.733 L17.067,7.155 C17.636,6.980 18.136,6.680 18.557,6.260 C19.994,4.824 20.000,2.494 18.570,1.067 C17.884,0.381 16.966,0.003 15.987,0.003 C14.994,0.003 14.063,0.388 13.365,1.086 C12.945,1.505 12.646,2.002 12.472,2.566 L10.352,0.448 C10.211,0.308 10.024,0.231 9.825,0.231 C9.626,0.231 9.438,0.308 9.297,0.449 L7.177,2.567 C7.002,2.000 6.701,1.501 6.278,1.079 C5.582,0.383 4.654,0.000 3.666,0.000 C2.687,0.000 1.768,0.379 1.080,1.067 C0.387,1.759 0.009,2.683 0.015,3.670 C0.018,4.651 0.403,5.573 1.099,6.265 C1.518,6.684 2.015,6.982 2.581,7.156 L0.290,9.444 C0.000,9.735 0.001,10.207 0.291,10.498 L9.587,19.782 C9.728,19.922 9.916,20.000 10.115,20.000 L10.116,20.000 C10.312,20.000 10.504,19.920 10.643,19.782 L14.053,16.377 C14.278,16.151 14.336,15.808 14.196,15.522 C14.071,15.268 13.809,15.104 13.527,15.104 C13.496,15.104 13.463,15.106 13.433,15.110 C12.631,15.209 11.966,15.011 11.482,14.527 C11.071,14.117 10.845,13.571 10.845,12.991 C10.843,12.419 11.075,11.859 11.482,11.456 C11.892,11.046 12.438,10.820 13.026,10.820 C13.596,10.820 14.154,11.051 14.557,11.456 C15.044,11.943 15.241,12.599 15.140,13.405 C15.112,13.634 15.189,13.860 15.353,14.023 C15.494,14.164 15.681,14.242 15.881,14.242 C16.080,14.242 16.267,14.164 16.408,14.024 L19.649,10.787 C19.940,10.497 19.940,10.024 19.649,9.733 ZM9.352,12.991 C9.349,13.956 9.741,14.901 10.426,15.581 C10.836,15.991 11.318,16.283 11.865,16.453 L10.115,18.201 L1.874,9.970 L4.757,7.092 C4.916,6.933 4.994,6.713 4.971,6.489 C4.929,6.082 4.572,5.780 4.152,5.823 C3.324,5.909 2.645,5.701 2.154,5.211 C1.739,4.797 1.509,4.247 1.507,3.661 C1.504,3.075 1.727,2.528 2.135,2.121 C2.541,1.714 3.085,1.491 3.674,1.491 C4.251,1.491 4.815,1.725 5.223,2.133 C5.842,2.751 5.901,3.563 5.842,4.136 C5.819,4.360 5.897,4.580 6.057,4.740 C6.198,4.880 6.385,4.958 6.585,4.958 C6.784,4.958 6.971,4.880 7.112,4.739 L9.825,2.030 L12.537,4.739 C12.694,4.896 12.918,4.977 13.142,4.954 C13.551,4.912 13.850,4.545 13.807,4.136 C13.721,3.304 13.928,2.632 14.421,2.140 C14.830,1.729 15.397,1.494 15.987,1.494 C16.567,1.494 17.110,1.717 17.515,2.121 C17.924,2.530 18.149,3.076 18.147,3.659 C18.144,4.243 17.915,4.792 17.502,5.205 C17.008,5.698 16.327,5.908 15.497,5.823 C15.272,5.800 15.053,5.879 14.894,6.037 C14.753,6.177 14.675,6.365 14.675,6.564 C14.674,6.763 14.752,6.950 14.893,7.092 L18.066,10.261 L16.486,11.838 C16.316,11.295 16.023,10.813 15.612,10.402 C14.920,9.710 13.999,9.329 13.019,9.329 C12.039,9.329 11.118,9.710 10.426,10.402 C9.733,11.093 9.352,12.013 9.352,12.991 Z"/></svg>