<svg  xmlns="http://www.w3.org/2000/svg" xmlns:xlink="http://www.w3.org/1999/xlink" width="20px" height="20px"><path fill-rule="evenodd"  fill="rgb(255, 255, 255)" d="M14.534,5.465 C13.417,4.348 11.605,4.348 10.488,5.465 C9.371,6.582 9.371,8.395 10.488,9.511 C11.605,10.628 13.417,10.628 14.534,9.511 C15.651,8.395 15.651,6.582 14.534,5.465 ZM11.135,8.864 C10.378,8.106 10.378,6.871 11.135,6.113 C11.893,5.355 13.129,5.355 13.887,6.113 C14.644,6.871 14.644,8.106 13.887,8.864 C13.129,9.621 11.895,9.621 11.135,8.864 ZM13.777,17.135 L12.213,15.572 C13.186,14.814 14.282,13.718 15.651,12.349 C19.815,8.186 20.000,1.739 19.130,0.870 C18.261,0.000 11.843,0.154 7.649,4.348 C6.281,5.717 5.182,6.811 4.420,7.781 L2.795,6.156 L2.754,6.115 L0.000,8.864 L0.810,9.674 L2.754,7.731 L3.761,8.738 C2.776,10.438 3.083,11.876 5.139,14.052 L3.060,16.130 L3.871,16.940 L5.949,14.862 C8.109,16.899 9.549,17.206 11.254,16.231 L12.271,17.247 L10.327,19.190 L11.138,20.000 L13.887,17.247 L13.777,17.135 L13.777,17.135 ZM17.162,1.588 C17.743,1.593 18.107,1.657 18.290,1.707 C18.341,1.891 18.405,2.257 18.407,2.842 C18.409,3.199 18.386,3.698 18.302,4.316 L18.315,4.206 C17.855,3.847 17.409,3.451 16.979,3.021 C16.546,2.588 16.148,2.140 15.786,1.678 C16.358,1.604 16.825,1.586 17.162,1.588 L17.162,1.588 ZM18.142,5.223 C18.180,5.040 18.212,4.863 18.242,4.696 C18.212,4.866 18.180,5.042 18.142,5.223 ZM18.242,4.689 C18.256,4.605 18.270,4.524 18.281,4.444 C18.270,4.524 18.256,4.607 18.242,4.689 ZM18.281,4.444 C18.286,4.406 18.293,4.369 18.297,4.332 C18.293,4.369 18.288,4.406 18.281,4.444 ZM10.034,15.530 C9.558,15.679 9.137,15.647 8.624,15.418 C8.096,15.182 7.480,14.734 6.754,14.052 L8.723,12.084 L7.913,11.274 L5.944,13.242 C5.260,12.514 4.809,11.898 4.571,11.370 C4.342,10.862 4.303,10.445 4.447,9.976 C4.804,8.806 6.297,7.317 8.359,5.252 L8.455,5.156 C9.295,4.316 10.293,3.598 11.417,3.025 C12.392,2.529 13.440,2.151 14.532,1.900 C14.656,1.872 14.777,1.845 14.896,1.822 L14.765,1.849 C15.216,2.467 15.738,3.081 16.326,3.666 C16.912,4.252 17.521,4.772 18.137,5.220 C18.119,5.305 18.100,5.389 18.080,5.474 C17.828,6.568 17.448,7.617 16.954,8.591 C16.384,9.713 15.672,10.704 14.839,11.537 C12.742,13.640 11.225,15.157 10.034,15.530 L10.034,15.530 ZM15.786,1.678 C15.747,1.682 15.708,1.687 15.669,1.694 C15.708,1.689 15.747,1.682 15.786,1.678 ZM15.669,1.694 C15.592,1.705 15.509,1.717 15.427,1.730 C15.509,1.717 15.592,1.705 15.669,1.694 ZM15.425,1.730 C15.386,1.737 15.344,1.744 15.306,1.751 C15.347,1.742 15.386,1.735 15.425,1.730 ZM15.296,1.751 C15.173,1.771 15.045,1.794 14.914,1.822 C15.045,1.794 15.173,1.771 15.296,1.751 Z"/></svg>