<svg  xmlns="http://www.w3.org/2000/svg" xmlns:xlink="http://www.w3.org/1999/xlink" width="20px" height="20px"><path fill-rule="evenodd"  fill="rgb(255, 255, 255)" d="M19.141,7.339 C19.490,6.395 19.449,5.391 19.023,4.502 C18.609,3.641 17.673,2.929 16.509,2.588 C16.128,1.876 15.546,1.388 14.777,1.136 C14.408,1.015 14.003,0.954 13.573,0.954 C13.110,0.954 12.632,1.027 12.185,1.164 C11.566,0.484 10.799,0.086 9.960,0.012 C9.871,0.004 9.780,0.000 9.689,0.000 C8.848,0.000 8.023,0.326 7.459,0.878 C6.877,0.596 6.227,0.461 5.570,0.491 C4.676,0.533 3.878,0.880 3.259,1.493 C2.636,2.114 2.232,2.971 2.057,4.040 C1.348,4.304 0.794,4.857 0.451,5.644 C0.117,6.408 0.000,7.360 0.120,8.325 C0.239,9.292 0.579,10.158 1.079,10.765 C1.664,11.474 2.438,11.791 3.272,11.660 C3.511,11.873 3.792,12.032 4.107,12.136 C3.701,12.965 3.773,13.748 4.317,14.358 C4.874,14.984 5.906,15.367 7.224,15.438 C8.470,15.504 9.883,15.277 11.120,14.811 C11.311,14.740 11.500,14.663 11.682,14.580 C12.275,14.810 12.657,15.324 12.637,15.870 C12.628,16.148 12.515,16.406 12.301,16.639 C12.094,16.862 11.807,17.048 11.444,17.191 C11.107,16.664 10.523,16.342 9.888,16.342 C8.872,16.342 8.045,17.162 8.045,18.171 C8.045,19.180 8.872,20.000 9.888,20.000 C10.853,20.000 11.656,19.249 11.726,18.305 C13.001,17.843 13.750,16.974 13.786,15.908 C13.810,15.160 13.462,14.441 12.845,13.945 C13.538,13.492 14.124,12.960 14.589,12.359 C14.674,12.249 14.758,12.137 14.837,12.026 C14.852,12.031 14.867,12.036 14.882,12.040 C15.928,12.335 16.882,12.361 17.676,12.118 C18.415,11.891 19.001,11.438 19.372,10.809 C20.000,9.742 19.905,8.359 19.141,7.339 ZM15.382,6.988 C15.764,6.988 16.076,7.297 16.076,7.677 C16.076,8.057 15.764,8.366 15.382,8.366 C14.999,8.366 14.688,8.057 14.688,7.677 C14.688,7.297 14.999,6.988 15.382,6.988 ZM15.968,9.412 C16.713,9.163 17.224,8.465 17.224,7.677 C17.224,6.669 16.398,5.848 15.382,5.848 C14.366,5.848 13.539,6.669 13.539,7.677 C13.539,8.475 14.054,9.172 14.807,9.417 C14.688,10.101 14.309,10.856 13.680,11.665 C12.987,12.554 11.961,13.272 10.712,13.743 C9.743,14.107 8.662,14.308 7.667,14.308 C7.538,14.308 7.409,14.305 7.284,14.298 C6.305,14.244 5.517,13.984 5.176,13.601 C5.038,13.446 4.981,13.283 4.997,13.088 C5.018,12.852 5.146,12.567 5.367,12.262 C5.951,12.208 6.579,12.020 7.235,11.702 C7.522,11.564 7.793,11.489 8.085,11.467 C8.296,11.453 8.446,11.460 8.859,11.508 C9.112,11.537 9.213,11.548 9.358,11.556 C10.092,11.596 10.679,11.407 11.282,10.920 C12.087,10.271 12.270,9.243 11.829,7.866 C12.037,7.562 12.147,7.209 12.147,6.839 C12.147,5.830 11.320,5.010 10.304,5.010 C9.288,5.010 8.461,5.830 8.461,6.839 C8.461,7.848 9.288,8.668 10.304,8.668 C10.486,8.668 10.666,8.642 10.839,8.589 C11.000,9.280 10.907,9.753 10.559,10.035 C10.175,10.345 9.877,10.442 9.424,10.416 C9.317,10.411 9.235,10.401 9.016,10.376 L8.998,10.374 C8.578,10.325 8.329,10.304 8.006,10.328 C7.571,10.360 7.157,10.473 6.740,10.673 C6.098,10.980 5.522,11.136 5.029,11.136 C4.954,11.136 4.880,11.132 4.810,11.125 C4.396,11.081 4.079,10.913 3.866,10.625 C3.438,10.048 3.707,9.214 4.534,8.532 C4.755,8.622 4.990,8.668 5.234,8.668 C6.250,8.668 7.077,7.848 7.077,6.839 C7.077,5.830 6.250,5.010 5.234,5.010 C4.218,5.010 3.391,5.830 3.391,6.839 C3.391,7.191 3.494,7.536 3.683,7.825 C2.853,8.583 2.437,9.615 2.596,10.497 C2.370,10.425 2.159,10.271 1.967,10.039 C1.608,9.605 1.350,8.929 1.259,8.185 C1.167,7.425 1.256,6.663 1.505,6.092 C1.763,5.500 2.162,5.144 2.691,5.036 C2.937,4.988 3.120,4.788 3.148,4.538 C3.254,3.553 3.566,2.799 4.073,2.295 C4.485,1.886 5.021,1.655 5.624,1.627 C6.759,1.574 7.845,2.253 8.010,3.096 C8.061,3.365 8.298,3.559 8.572,3.559 C8.610,3.559 8.648,3.556 8.683,3.549 C8.835,3.520 8.966,3.435 9.052,3.308 C9.138,3.181 9.169,3.029 9.139,2.880 C9.046,2.397 8.798,1.943 8.419,1.557 C8.807,1.260 9.350,1.102 9.861,1.147 C10.274,1.182 10.661,1.343 11.011,1.623 C11.440,1.967 11.803,2.483 12.090,3.157 C12.178,3.370 12.386,3.508 12.619,3.508 C12.696,3.508 12.771,3.493 12.841,3.463 C12.983,3.405 13.094,3.295 13.152,3.155 C13.211,3.013 13.210,2.857 13.150,2.716 C13.067,2.522 12.978,2.337 12.885,2.165 C13.113,2.121 13.348,2.097 13.573,2.097 C13.882,2.097 14.166,2.140 14.418,2.222 C15.219,2.484 15.680,3.136 15.827,4.214 C15.870,4.520 16.156,4.745 16.475,4.701 C16.788,4.658 17.008,4.370 16.965,4.058 C16.962,4.032 16.958,4.007 16.954,3.982 C17.427,4.240 17.796,4.599 17.985,4.994 C18.316,5.682 18.306,6.464 17.958,7.197 C17.855,7.412 17.895,7.662 18.060,7.835 C18.682,8.483 18.817,9.492 18.380,10.233 C18.152,10.618 17.801,10.885 17.336,11.027 C16.820,11.186 16.180,11.181 15.458,11.011 C15.732,10.466 15.903,9.929 15.968,9.412 ZM11.002,6.837 C11.002,7.217 10.691,7.526 10.308,7.526 C9.925,7.526 9.614,7.218 9.614,6.839 C9.614,6.459 9.925,6.150 10.308,6.150 C10.691,6.150 11.002,6.459 11.002,6.837 ZM5.234,6.150 C5.617,6.150 5.928,6.459 5.928,6.837 C5.928,7.217 5.617,7.526 5.234,7.526 C4.851,7.526 4.540,7.218 4.540,6.839 C4.540,6.459 4.851,6.150 5.234,6.150 ZM10.580,18.169 C10.580,18.549 10.268,18.858 9.886,18.858 C9.503,18.858 9.192,18.550 9.192,18.171 C9.192,17.791 9.503,17.482 9.886,17.482 C10.268,17.482 10.580,17.790 10.580,18.169 Z"/></svg>