<svg  xmlns="http://www.w3.org/2000/svg" xmlns:xlink="http://www.w3.org/1999/xlink" width="16px" height="20px"><path fill-rule="evenodd"  fill="rgb(255, 255, 255)" d="M15.697,5.890 C15.530,5.890 15.393,5.748 15.393,5.575 C15.393,2.850 13.255,0.630 10.631,0.630 C10.465,0.630 10.328,0.488 10.328,0.315 C10.328,0.142 10.465,-0.000 10.631,-0.000 C13.589,-0.000 16.000,2.504 16.000,5.575 C16.000,5.748 15.863,5.890 15.697,5.890 ZM10.616,2.913 C12.027,2.913 13.179,4.110 13.179,5.575 C13.179,5.748 13.043,5.890 12.876,5.890 C12.709,5.890 12.573,5.748 12.573,5.575 C12.573,4.457 11.693,3.543 10.616,3.543 C10.449,3.543 10.313,3.402 10.313,3.228 C10.313,3.055 10.449,2.913 10.616,2.913 ZM11.450,4.724 C11.663,4.945 11.784,5.244 11.784,5.575 C11.784,5.906 11.663,6.189 11.450,6.425 C11.223,6.646 10.935,6.772 10.631,6.772 C10.476,6.772 10.326,6.738 10.186,6.676 L8.952,10.178 L12.300,13.654 C12.360,13.716 12.391,13.795 12.391,13.890 C12.391,13.984 12.345,14.063 12.284,14.110 C10.980,15.307 9.327,15.890 7.689,15.890 C7.255,15.890 6.822,15.844 6.396,15.762 L8.948,19.496 C9.009,19.591 9.024,19.717 8.963,19.827 C8.948,19.937 8.842,20.000 8.736,20.000 L2.715,20.000 C2.608,20.000 2.502,19.937 2.442,19.827 C2.396,19.717 2.396,19.591 2.457,19.496 L5.243,15.419 C4.326,15.067 3.465,14.527 2.730,13.764 C0.136,11.071 0.000,6.709 2.396,3.843 C2.457,3.780 2.533,3.732 2.608,3.732 C2.700,3.732 2.775,3.764 2.836,3.827 L6.213,7.333 L9.566,6.042 C9.509,5.898 9.479,5.740 9.479,5.575 C9.479,5.244 9.600,4.961 9.812,4.724 C10.025,4.504 10.313,4.378 10.631,4.378 C10.935,4.378 11.223,4.504 11.450,4.724 ZM8.144,19.370 L5.733,15.842 L3.306,19.370 L8.144,19.370 ZM2.654,4.520 C0.667,7.134 0.864,10.945 3.170,13.323 C5.460,15.701 9.130,15.906 11.647,13.858 L2.654,4.520 ZM6.673,7.811 L8.478,9.685 L9.524,6.740 L6.673,7.811 ZM10.085,5.575 C10.085,5.732 10.146,5.874 10.252,5.969 C10.465,6.189 10.813,6.189 11.026,5.969 C11.132,5.858 11.192,5.716 11.192,5.575 C11.192,5.417 11.132,5.276 11.026,5.181 C10.904,5.071 10.768,5.008 10.631,5.008 C10.480,5.008 10.343,5.071 10.252,5.181 C10.146,5.291 10.085,5.433 10.085,5.575 ZM10.631,2.094 C10.465,2.094 10.328,1.953 10.328,1.780 C10.328,1.606 10.465,1.465 10.631,1.465 C12.815,1.465 14.590,3.307 14.590,5.575 C14.590,5.748 14.453,5.890 14.286,5.890 C14.119,5.890 13.983,5.748 13.983,5.575 C13.983,3.654 12.482,2.094 10.631,2.094 Z"/></svg>