<svg  xmlns="http://www.w3.org/2000/svg" xmlns:xlink="http://www.w3.org/1999/xlink" width="20px" height="20px"><path fill-rule="evenodd"  fill="rgb(255, 255, 255)" d="M18.510,11.756 C18.462,11.756 13.016,2.615 13.016,2.615 C13.333,2.341 13.431,2.042 13.431,1.594 C13.431,0.747 12.772,0.050 11.941,0.025 C10.330,0.000 10.281,1.719 10.330,1.793 L4.225,4.109 C3.956,3.711 3.565,3.562 3.077,3.562 C2.222,3.562 1.538,4.259 1.538,5.131 C1.538,5.828 1.905,6.426 2.515,6.625 L1.123,12.603 C0.440,12.752 0.000,13.375 0.000,14.122 C0.000,14.994 0.684,15.691 1.538,15.691 C2.003,15.691 2.418,15.492 2.735,15.143 L8.449,18.381 L8.449,18.431 C8.449,19.303 9.133,20.000 9.988,20.000 C10.916,20.000 11.526,19.153 11.429,18.331 L17.509,14.695 C17.778,14.894 18.120,14.919 18.462,14.919 C19.316,14.919 20.000,14.222 20.000,13.350 C19.976,12.553 19.267,11.731 18.510,11.756 ZM11.844,0.772 C12.259,0.772 12.601,1.121 12.601,1.544 C12.601,1.968 12.259,2.316 11.844,2.316 C11.429,2.316 11.087,1.968 11.087,1.544 C11.087,1.146 11.429,0.772 11.844,0.772 ZM10.647,8.892 L7.863,7.248 L11.429,3.063 C11.477,3.063 11.355,3.063 11.429,3.063 L10.647,8.892 ZM11.307,10.137 L16.044,12.852 L10.965,13.051 L11.307,10.137 ZM10.476,9.713 L10.134,13.176 L7.668,13.300 L5.958,9.689 L7.399,7.896 L10.476,9.713 ZM10.623,2.516 C10.672,2.590 10.745,2.640 10.769,2.715 L7.253,6.874 L4.518,5.280 C4.518,5.206 4.518,5.131 4.518,5.081 C4.518,5.006 4.518,4.882 4.469,4.807 L10.623,2.516 ZM4.298,5.953 L6.813,7.397 L5.543,8.892 L4.249,6.003 L4.298,5.953 ZM2.247,5.081 C2.247,4.658 2.589,4.309 3.004,4.309 C3.419,4.309 3.761,4.658 3.761,5.081 C3.761,5.505 3.419,5.853 3.004,5.853 C2.589,5.853 2.247,5.529 2.247,5.081 ZM1.490,14.870 C1.075,14.870 0.733,14.521 0.733,14.097 C0.733,13.674 1.075,13.325 1.490,13.325 C1.905,13.325 2.247,13.674 2.247,14.097 C2.247,14.521 1.905,14.870 1.490,14.870 ZM2.344,12.752 C2.222,12.678 2.125,12.628 1.954,12.553 L3.346,6.576 C3.468,6.526 3.541,6.576 3.663,6.526 L5.055,9.539 L2.344,12.752 ZM2.833,13.300 L5.348,10.237 L6.740,13.400 L2.906,13.574 C2.833,13.425 2.906,13.425 2.833,13.300 ZM8.596,17.510 L3.126,14.421 L7.106,14.197 L8.571,17.409 C8.547,17.484 8.620,17.409 8.596,17.510 ZM7.961,14.172 L9.988,14.047 L9.646,16.837 C9.499,16.887 9.377,16.912 9.255,16.961 L7.961,14.172 ZM9.939,19.178 C9.524,19.178 9.182,18.829 9.182,18.406 C9.182,17.983 9.524,17.634 9.939,17.634 C10.354,17.634 10.696,17.983 10.696,18.406 C10.696,18.829 10.354,19.178 9.939,19.178 ZM11.184,17.534 C10.989,17.260 10.720,17.036 10.379,16.912 L10.769,14.047 L16.874,13.723 C16.923,13.848 16.948,13.948 16.996,14.072 L11.184,17.534 ZM17.021,12.553 L11.380,9.265 L12.186,3.088 C12.234,3.088 12.259,3.088 12.259,3.039 L17.582,11.930 C17.363,12.055 17.143,12.279 17.021,12.553 ZM18.364,14.097 C17.949,14.097 17.607,13.748 17.607,13.325 C17.607,12.902 17.949,12.553 18.364,12.553 C18.779,12.553 19.121,12.902 19.121,13.325 C19.145,13.723 18.803,14.097 18.364,14.097 Z"/></svg>