<svg  xmlns="http://www.w3.org/2000/svg" xmlns:xlink="http://www.w3.org/1999/xlink" width="20px" height="16px"><path fill-rule="evenodd"  fill="rgb(255, 255, 255)" d="M19.480,9.900 L18.210,9.900 C17.920,9.900 17.690,9.652 17.690,9.339 C17.690,9.026 17.920,8.777 18.210,8.777 L19.480,8.777 C19.770,8.777 20.000,9.026 20.000,9.339 C20.000,9.652 19.770,9.900 19.480,9.900 ZM19.480,7.223 L18.210,7.223 C17.920,7.223 17.690,6.975 17.690,6.661 C17.690,6.348 17.920,6.100 18.210,6.100 L19.480,6.100 C19.770,6.100 20.000,6.348 20.000,6.661 C20.000,6.964 19.770,7.223 19.480,7.223 ZM19.480,4.534 L18.210,4.534 C17.920,4.534 17.690,4.286 17.690,3.973 C17.690,3.660 17.920,3.412 18.210,3.412 L19.480,3.412 C19.770,3.412 20.000,3.660 20.000,3.973 C20.000,4.286 19.770,4.534 19.480,4.534 ZM15.170,16.000 L4.830,16.000 C3.590,16.000 2.590,14.910 2.590,13.582 L2.590,2.418 C2.590,1.080 3.600,0.000 4.830,0.000 L15.170,0.000 C16.410,0.000 17.410,1.090 17.410,2.418 L17.410,13.582 C17.410,14.920 16.410,16.000 15.170,16.000 ZM16.380,9.716 L10.600,9.716 C10.470,9.716 10.350,9.771 10.260,9.857 L8.388,11.621 C8.430,11.742 8.460,11.869 8.460,12.005 C8.460,12.006 8.460,12.006 8.460,12.007 C8.460,12.621 7.998,13.119 7.429,13.118 C6.861,13.118 6.400,12.620 6.400,12.005 C6.400,12.005 6.400,12.005 6.400,12.004 C6.400,11.390 6.862,10.893 7.431,10.893 C7.620,10.893 7.787,10.963 7.939,11.059 L9.810,9.295 C10.030,9.090 10.310,8.972 10.600,8.972 L16.380,8.972 L16.380,2.418 C16.380,1.695 15.840,1.112 15.170,1.112 L4.830,1.112 C4.160,1.112 3.620,1.695 3.620,2.418 L3.620,6.283 L9.620,6.283 C9.750,6.283 9.870,6.229 9.960,6.143 L11.840,4.371 C11.800,4.252 11.770,4.128 11.770,3.995 C11.770,3.994 11.770,3.994 11.770,3.993 C11.770,3.379 12.232,2.882 12.801,2.882 C13.369,2.882 13.830,3.380 13.830,3.995 C13.830,3.995 13.830,3.995 13.830,3.996 C13.830,4.610 13.368,5.108 12.799,5.107 C12.608,5.107 12.439,5.035 12.285,4.937 L10.410,6.705 C10.200,6.920 9.920,7.028 9.630,7.028 L3.620,7.028 L3.620,13.582 C3.620,14.305 4.160,14.888 4.830,14.888 L15.170,14.888 C15.840,14.888 16.380,14.305 16.380,13.582 L16.380,9.716 ZM1.790,12.578 L0.520,12.578 C0.230,12.578 -0.000,12.330 -0.000,12.016 C-0.000,11.703 0.230,11.455 0.520,11.455 L1.790,11.455 C2.080,11.455 2.310,11.703 2.310,12.016 C2.310,12.330 2.070,12.578 1.790,12.578 ZM1.790,9.900 L0.520,9.900 C0.230,9.900 -0.000,9.652 -0.000,9.339 C-0.000,9.026 0.230,8.777 0.520,8.777 L1.790,8.777 C2.080,8.777 2.310,9.026 2.310,9.339 C2.300,9.652 2.070,9.900 1.790,9.900 ZM1.790,7.223 L0.520,7.223 C0.230,7.223 -0.000,6.975 -0.000,6.661 C-0.000,6.348 0.230,6.100 0.520,6.100 L1.790,6.100 C2.080,6.100 2.310,6.348 2.310,6.661 C2.300,6.964 2.070,7.223 1.790,7.223 ZM1.790,4.534 L0.520,4.534 C0.230,4.534 -0.000,4.286 -0.000,3.973 C-0.000,3.660 0.230,3.412 0.520,3.412 L1.790,3.412 C2.080,3.412 2.310,3.660 2.310,3.973 C2.300,4.286 2.070,4.534 1.790,4.534 ZM18.210,11.455 L19.480,11.455 C19.770,11.455 20.000,11.703 20.000,12.016 C20.000,12.330 19.770,12.578 19.480,12.578 L18.210,12.578 C17.920,12.578 17.690,12.330 17.690,12.016 C17.690,11.703 17.920,11.455 18.210,11.455 Z"/></svg>