<svg  xmlns="http://www.w3.org/2000/svg" xmlns:xlink="http://www.w3.org/1999/xlink" width="20px" height="20px"><path fill-rule="evenodd"  fill="rgb(255, 255, 255)" d="M18.519,20.000 L1.482,20.000 C0.667,20.000 0.000,19.346 0.000,18.545 L0.000,8.000 C0.000,7.200 0.667,6.545 1.482,6.545 L1.482,7.273 C1.074,7.273 0.741,7.600 0.741,8.000 L0.741,17.091 L19.259,17.091 L19.259,8.000 C19.259,7.600 18.926,7.273 18.519,7.273 L17.778,7.273 L17.778,6.545 L18.519,6.545 C19.333,6.545 20.000,7.200 20.000,8.000 L20.000,18.545 C20.000,19.346 19.333,20.000 18.519,20.000 ZM19.259,17.818 L0.741,17.818 L0.741,18.545 C0.741,18.945 1.074,19.273 1.482,19.273 L18.519,19.273 C18.926,19.273 19.259,18.945 19.259,18.545 L19.259,17.818 ZM16.296,10.182 L17.037,10.182 L17.037,10.909 L16.296,10.909 L16.296,10.182 ZM16.296,8.727 L17.037,8.727 L17.037,9.454 L16.296,9.454 L16.296,8.727 ZM16.296,0.727 L4.815,0.727 L4.815,1.455 L4.074,1.455 L4.074,0.727 C4.074,0.327 4.407,-0.000 4.815,-0.000 L16.296,-0.000 C16.704,-0.000 17.037,0.327 17.037,0.727 L17.037,8.000 L16.296,8.000 L16.296,0.727 ZM15.185,12.364 L14.445,12.364 L14.445,11.636 L15.185,11.636 L15.185,12.364 ZM4.444,3.273 L4.444,4.000 L3.704,4.000 L3.704,3.273 L4.444,3.273 ZM5.926,3.273 L5.926,4.000 L5.185,4.000 L5.185,3.273 L5.926,3.273 ZM7.407,3.273 L7.407,4.000 L6.667,4.000 L6.667,3.273 L7.407,3.273 ZM9.169,14.929 C8.837,14.929 8.605,14.700 8.607,14.375 L8.607,12.385 L6.578,12.385 C6.251,12.385 6.014,12.151 6.014,11.831 C6.014,11.510 6.251,11.276 6.578,11.276 L8.603,11.276 L8.603,9.286 C8.603,8.961 8.836,8.732 9.168,8.732 C9.494,8.732 9.732,8.966 9.732,9.286 L9.732,11.275 L11.762,11.275 C12.089,11.275 12.326,11.508 12.326,11.829 C12.326,12.149 12.089,12.383 11.762,12.383 L9.734,12.383 L9.734,14.375 C9.734,14.700 9.501,14.929 9.169,14.929 ZM15.185,2.545 L15.185,10.909 L14.445,10.909 L14.445,2.545 L2.963,2.545 L2.963,4.727 L12.222,4.727 L12.222,5.455 L2.963,5.455 L2.963,15.273 L2.222,15.273 L2.222,5.455 L2.222,4.727 L2.222,2.545 C2.222,2.145 2.556,1.818 2.963,1.818 L14.445,1.818 C14.852,1.818 15.185,2.145 15.185,2.545 Z"/></svg>