<svg  xmlns="http://www.w3.org/2000/svg" xmlns:xlink="http://www.w3.org/1999/xlink" width="20px" height="20px"><path fill-rule="evenodd"  fill="rgb(255, 255, 255)" d="M19.487,13.598 C18.955,16.746 17.299,18.560 16.014,19.254 C14.643,19.994 13.603,20.000 13.571,20.000 C13.439,19.997 13.306,19.985 13.175,19.964 C12.747,19.901 12.006,19.727 11.129,19.254 C10.785,19.064 10.465,18.835 10.175,18.571 C9.124,17.628 8.063,16.002 7.656,13.598 C7.160,10.649 7.143,8.979 7.143,8.979 C7.143,8.979 7.388,9.018 7.835,9.018 C8.456,9.018 9.467,8.943 10.743,8.584 C11.487,8.376 12.199,8.066 12.857,7.661 C13.326,7.370 13.571,7.143 13.571,7.143 C13.571,7.143 13.817,7.370 14.286,7.661 C14.944,8.066 15.655,8.376 16.399,8.584 C17.675,8.943 18.686,9.018 19.308,9.018 C19.754,9.018 20.000,8.979 20.000,8.979 C20.000,8.979 19.984,10.649 19.487,13.598 ZM9.105,13.572 C9.322,14.713 9.720,15.710 10.288,16.539 C10.894,17.421 11.500,17.831 11.808,17.998 C12.141,18.179 12.493,18.325 12.857,18.433 C13.245,18.545 13.508,18.568 13.571,18.571 L13.571,13.572 L9.105,13.572 ZM16.013,9.959 C15.418,9.792 14.839,9.570 14.286,9.295 C14.016,9.161 13.778,9.026 13.571,8.900 L13.571,13.572 L18.039,13.572 C18.052,13.502 18.065,13.431 18.077,13.360 C18.283,12.138 18.403,11.144 18.474,10.411 C17.641,10.340 16.817,10.188 16.013,9.959 ZM13.576,6.158 L13.088,6.617 C13.077,6.627 12.998,6.696 12.857,6.800 L12.857,1.431 L12.855,1.429 L1.431,1.429 L1.429,1.431 L1.429,18.569 L1.431,18.571 L9.168,18.571 C9.335,18.758 9.512,18.936 9.698,19.103 C10.030,19.405 10.396,19.666 10.789,19.882 C10.866,19.924 10.941,19.963 11.016,20.000 L1.429,20.000 C0.641,19.998 0.002,19.359 0.000,18.571 L0.000,1.429 C0.002,0.641 0.641,0.002 1.429,0.000 L12.857,0.000 C13.645,0.002 14.283,0.641 14.286,1.429 L14.286,6.800 C14.146,6.697 14.067,6.628 14.055,6.618 L13.576,6.158 Z"/></svg>