<svg  xmlns="http://www.w3.org/2000/svg" xmlns:xlink="http://www.w3.org/1999/xlink" width="20px" height="20px"><path fill-rule="evenodd"  fill="rgb(255, 255, 255)" d="M8.437,4.833 C7.633,5.051 6.886,5.465 6.272,6.034 C6.148,6.150 6.140,6.345 6.257,6.470 C6.317,6.534 6.399,6.568 6.482,6.568 C6.557,6.568 6.632,6.541 6.691,6.485 C7.231,5.985 7.890,5.618 8.598,5.427 C8.761,5.382 8.858,5.213 8.813,5.049 C8.769,4.885 8.601,4.787 8.437,4.833 L8.437,4.833 ZM5.649,7.253 C5.500,7.172 5.313,7.229 5.232,7.378 C5.109,7.608 5.001,7.850 4.913,8.096 C4.857,8.256 4.941,8.432 5.101,8.489 C5.134,8.501 5.170,8.507 5.203,8.507 C5.330,8.507 5.449,8.428 5.493,8.302 C5.571,8.085 5.666,7.872 5.774,7.670 C5.854,7.520 5.799,7.334 5.649,7.253 L5.649,7.253 ZM19.384,9.539 L17.634,9.539 C17.490,5.780 14.581,2.718 10.887,2.335 L10.887,0.615 C10.887,0.276 10.611,0.000 10.271,0.000 C9.931,0.000 9.656,0.276 9.656,0.615 L9.656,2.307 C5.803,2.533 2.719,5.666 2.570,9.539 L0.616,9.539 C0.276,9.539 0.000,9.815 0.000,10.155 C0.000,10.493 0.276,10.769 0.616,10.769 L2.622,10.769 C3.067,14.340 6.019,17.143 9.656,17.357 L9.656,19.385 C9.656,19.724 9.931,20.000 10.271,20.000 C10.611,20.000 10.887,19.724 10.887,19.385 L10.887,17.330 C14.368,16.969 17.152,14.229 17.583,10.769 L19.384,10.769 C19.724,10.769 20.000,10.493 20.000,10.155 C20.000,9.815 19.724,9.539 19.384,9.539 L19.384,9.539 ZM15.077,10.769 L16.341,10.769 C15.924,13.549 13.688,15.742 10.887,16.091 L10.887,15.077 C10.887,14.737 10.611,14.462 10.271,14.462 C9.931,14.462 9.656,14.737 9.656,15.077 L9.656,16.123 C6.698,15.916 4.297,13.660 3.864,10.769 L4.923,10.769 C5.263,10.769 5.539,10.493 5.539,10.153 C5.539,9.815 5.263,9.539 4.923,9.539 L3.802,9.539 C3.949,6.345 6.482,3.763 9.656,3.540 L9.656,4.923 C9.656,5.263 9.931,5.539 10.271,5.539 C10.611,5.539 10.887,5.263 10.887,4.923 L10.887,3.573 C13.901,3.948 16.262,6.459 16.403,9.539 L15.077,9.539 C14.737,9.539 14.461,9.815 14.461,10.155 C14.461,10.493 14.737,10.769 15.077,10.769 L15.077,10.769 Z"/></svg>