<svg  xmlns="http://www.w3.org/2000/svg" xmlns:xlink="http://www.w3.org/1999/xlink" width="18px" height="20px"><path fill-rule="evenodd"  fill="rgb(255, 255, 255)" d="M17.496,4.642 L9.504,0.105 C9.347,0.031 9.173,-0.000 9.000,0.014 C8.824,0.014 8.651,0.058 8.496,0.142 L0.504,4.678 C0.217,4.837 0.028,5.130 -0.000,5.459 L-0.000,14.533 C0.004,14.885 0.196,15.209 0.504,15.376 L8.496,19.914 C8.656,19.978 8.829,20.000 9.000,19.977 C9.175,19.973 9.347,19.929 9.504,19.850 L17.496,15.313 C17.786,15.158 17.976,14.863 18.000,14.533 L18.000,5.459 C17.977,5.119 17.788,4.813 17.496,4.642 L17.496,4.642 ZM17.145,14.623 L9.045,19.215 L0.900,14.596 L0.900,5.459 L9.000,0.822 L17.145,5.459 L17.145,14.623 ZM3.870,10.232 C3.929,13.181 6.344,15.527 9.270,15.476 C9.882,15.475 10.490,15.374 11.070,15.177 C11.133,15.161 11.189,15.127 11.232,15.077 C11.396,14.908 11.396,14.638 11.232,14.469 L7.902,11.420 L10.503,8.871 L13.716,11.810 C13.833,11.918 13.995,11.959 14.148,11.919 C14.304,11.869 14.427,11.748 14.481,11.593 C14.604,11.147 14.665,10.686 14.661,10.222 C14.602,7.273 12.187,4.927 9.261,4.978 C6.337,4.937 3.929,7.284 3.870,10.232 L3.870,10.232 ZM9.270,5.876 C11.707,5.841 13.716,7.793 13.770,10.250 L13.770,10.631 L10.800,7.927 C10.621,7.763 10.349,7.763 10.170,7.927 L6.939,11.103 C6.854,11.182 6.808,11.295 6.813,11.411 C6.805,11.533 6.855,11.651 6.948,11.729 L10.089,14.533 L9.711,14.578 L9.270,14.578 C6.831,14.619 4.819,12.663 4.770,10.205 C4.848,7.766 6.850,5.840 9.270,5.876 Z"/></svg>