<svg  xmlns="http://www.w3.org/2000/svg" xmlns:xlink="http://www.w3.org/1999/xlink" width="20px" height="20px"><path fill-rule="evenodd"  fill="rgb(255, 255, 255)" d="M19.901,15.227 L18.272,17.232 C18.123,17.375 18.025,17.422 17.877,17.422 C17.778,17.422 17.679,17.375 17.630,17.327 L12.346,13.270 C12.000,13.413 11.704,13.509 11.358,13.509 C9.383,13.699 7.556,12.315 7.358,10.406 C7.309,9.976 7.358,9.546 7.457,9.165 C7.506,9.022 7.605,8.926 7.753,8.878 C7.901,8.830 8.049,8.878 8.148,8.926 L10.321,10.644 L11.457,9.308 L9.284,7.590 C9.185,7.494 9.136,7.351 9.136,7.208 C9.136,7.065 9.235,6.969 9.383,6.874 C9.778,6.683 10.222,6.539 10.617,6.492 C12.593,6.301 14.420,7.685 14.617,9.594 C14.667,9.929 14.667,10.263 14.568,10.597 L19.852,14.654 C19.951,14.702 20.000,14.845 20.000,14.940 C20.000,15.036 20.000,15.179 19.901,15.227 ZM13.778,11.169 C13.630,11.074 13.580,10.883 13.630,10.740 C13.728,10.406 13.728,10.072 13.679,9.785 C13.531,8.306 12.148,7.255 10.617,7.399 C10.519,7.399 10.420,7.446 10.321,7.446 L12.247,8.926 C12.346,8.974 12.395,9.117 12.395,9.212 C12.395,9.308 12.395,9.451 12.296,9.499 L10.667,11.504 C10.617,11.599 10.469,11.647 10.370,11.647 C10.272,11.647 10.123,11.647 10.074,11.551 L8.148,10.072 L8.148,10.358 C8.296,11.838 9.679,12.888 11.210,12.745 C11.556,12.697 11.852,12.602 12.148,12.458 C12.296,12.458 12.346,12.410 12.395,12.410 C12.494,12.410 12.593,12.458 12.642,12.506 L17.778,16.468 L18.914,15.131 L13.778,11.169 ZM19.457,5.967 C16.543,6.778 15.753,7.017 15.506,7.065 C15.210,7.160 15.012,6.969 14.321,6.301 L14.074,6.062 C12.148,4.630 9.185,4.630 7.111,6.110 C5.926,6.921 5.284,8.258 5.284,9.881 C5.235,12.792 7.506,14.988 10.321,14.988 L10.469,14.988 C10.617,14.988 10.815,15.084 10.864,15.227 L12.790,19.427 C12.840,19.570 12.840,19.714 12.741,19.809 C12.691,19.953 12.543,20.000 12.395,20.000 L8.000,20.000 C7.802,20.000 7.605,19.857 7.556,19.618 L7.358,17.661 C7.161,17.614 6.963,17.518 6.765,17.422 L5.185,18.664 C5.037,18.807 4.790,18.807 4.593,18.616 L1.333,15.466 C1.185,15.322 1.185,15.084 1.333,14.893 L2.667,13.365 C2.568,13.174 2.519,12.983 2.420,12.792 L0.395,12.602 C0.198,12.602 0.000,12.410 0.000,12.172 L0.000,7.733 C0.000,7.542 0.148,7.351 0.395,7.303 L2.420,7.112 C2.469,6.921 2.568,6.730 2.667,6.539 L1.383,5.012 C1.235,4.869 1.235,4.630 1.432,4.439 L4.691,1.289 C4.839,1.146 5.086,1.146 5.284,1.289 L6.864,2.578 C7.062,2.482 7.259,2.434 7.457,2.339 L7.654,0.382 C7.654,0.191 7.852,0.000 8.099,0.000 L12.691,0.000 C12.889,0.000 13.086,0.143 13.136,0.382 L13.333,2.339 C13.531,2.387 13.728,2.482 13.926,2.578 L15.506,1.337 C15.704,1.193 15.951,1.193 16.099,1.384 L19.654,5.298 C19.753,5.394 19.803,5.537 19.753,5.680 C19.704,5.824 19.605,5.919 19.457,5.967 ZM15.654,2.291 L14.173,3.485 C14.025,3.580 13.877,3.628 13.728,3.532 C13.432,3.389 13.086,3.246 12.741,3.151 C12.593,3.103 12.444,2.960 12.444,2.816 L12.296,0.955 L8.444,0.955 L8.247,2.816 C8.247,2.960 8.099,3.103 7.951,3.151 C7.605,3.246 7.259,3.389 6.963,3.532 C6.815,3.628 6.617,3.580 6.519,3.485 L5.037,2.291 L2.321,4.917 L3.556,6.348 C3.654,6.492 3.704,6.635 3.605,6.778 C3.457,7.065 3.309,7.399 3.210,7.733 C3.161,7.876 3.012,8.019 2.864,8.019 L0.938,8.162 L0.938,11.885 L2.864,12.077 C3.012,12.077 3.161,12.220 3.210,12.363 C3.309,12.697 3.457,13.031 3.605,13.317 C3.704,13.461 3.654,13.652 3.556,13.747 L2.321,15.179 L5.037,17.804 L6.519,16.611 C6.667,16.516 6.815,16.468 6.963,16.563 C7.309,16.706 7.605,16.850 7.951,16.945 C8.099,16.993 8.247,17.136 8.247,17.279 L8.395,19.188 L11.753,19.188 L10.222,15.847 C7.012,15.752 4.395,13.222 4.395,10.072 C4.395,8.210 5.185,6.635 6.568,5.632 C8.938,3.914 12.296,3.914 14.568,5.585 L14.864,5.871 C15.012,6.014 15.259,6.253 15.407,6.348 C15.951,6.205 17.580,5.728 18.519,5.442 L15.654,2.291 Z"/></svg>