<svg  xmlns="http://www.w3.org/2000/svg" xmlns:xlink="http://www.w3.org/1999/xlink" width="16px" height="20px"><path fill-rule="evenodd"  fill="rgb(255, 255, 255)" d="M4.683,5.589 L3.482,5.589 C3.383,5.589 3.303,5.674 3.303,5.778 L3.303,6.179 C3.303,6.284 3.383,6.369 3.482,6.369 L4.683,6.369 C4.782,6.369 4.862,6.284 4.862,6.179 L4.862,5.778 C4.862,5.674 4.782,5.589 4.683,5.589 ZM4.683,7.662 L3.482,7.662 C3.383,7.662 3.303,7.746 3.303,7.851 L3.303,8.252 C3.303,8.356 3.383,8.441 3.482,8.441 L4.683,8.441 C4.782,8.441 4.862,8.356 4.862,8.252 L4.862,7.851 C4.862,7.746 4.782,7.662 4.683,7.662 ZM4.683,9.735 L3.482,9.735 C3.383,9.735 3.303,9.819 3.303,9.924 L3.303,10.325 C3.303,10.429 3.383,10.514 3.482,10.514 L4.683,10.514 C4.782,10.514 4.862,10.429 4.862,10.325 L4.862,9.924 C4.862,9.819 4.782,9.735 4.683,9.735 ZM12.616,9.735 L11.325,9.735 C11.226,9.735 11.146,9.819 11.146,9.924 L11.146,10.325 C11.146,10.429 11.226,10.514 11.325,10.514 L12.616,10.514 C12.715,10.514 12.795,10.429 12.795,10.325 L12.795,9.924 C12.795,9.819 12.715,9.735 12.616,9.735 ZM9.541,7.662 L6.467,7.662 C6.369,7.662 6.289,7.746 6.289,7.851 L6.289,8.252 C6.289,8.356 6.369,8.441 6.467,8.441 L9.541,8.441 C9.640,8.441 9.720,8.356 9.720,8.252 L9.720,7.851 C9.720,7.746 9.640,7.662 9.541,7.662 ZM9.541,9.735 L6.467,9.735 C6.369,9.735 6.289,9.819 6.289,9.924 L6.289,10.325 C6.289,10.429 6.369,10.514 6.467,10.514 L9.541,10.514 C9.640,10.514 9.720,10.429 9.720,10.325 L9.720,9.924 C9.720,9.819 9.640,9.735 9.541,9.735 ZM9.541,5.589 L6.467,5.589 C6.369,5.589 6.289,5.674 6.289,5.778 L6.289,6.179 C6.289,6.284 6.369,6.369 6.467,6.369 L9.541,6.369 C9.640,6.369 9.720,6.284 9.720,6.179 L9.720,5.778 C9.720,5.674 9.640,5.589 9.541,5.589 ZM12.616,5.589 L11.325,5.589 C11.226,5.589 11.146,5.674 11.146,5.778 L11.146,6.179 C11.146,6.284 11.226,6.369 11.325,6.369 L12.616,6.369 C12.715,6.369 12.795,6.284 12.795,6.179 L12.795,5.778 C12.795,5.674 12.715,5.589 12.616,5.589 ZM12.616,7.662 L11.325,7.662 C11.226,7.662 11.146,7.746 11.146,7.851 L11.146,8.252 C11.146,8.356 11.226,8.441 11.325,8.441 L12.616,8.441 C12.715,8.441 12.795,8.356 12.795,8.252 L12.795,7.851 C12.795,7.746 12.715,7.662 12.616,7.662 ZM6.778,3.728 L7.447,3.728 C7.489,3.728 7.527,3.713 7.558,3.687 C7.588,3.713 7.627,3.728 7.669,3.728 L8.337,3.728 C8.380,3.728 8.419,3.712 8.449,3.686 C8.480,3.712 8.519,3.728 8.562,3.728 L9.230,3.728 C9.329,3.728 9.409,3.643 9.409,3.539 L9.409,3.138 C9.409,3.033 9.329,2.948 9.230,2.948 L8.562,2.948 C8.519,2.948 8.480,2.964 8.449,2.990 C8.419,2.964 8.380,2.948 8.337,2.948 L7.669,2.948 C7.627,2.948 7.588,2.964 7.558,2.989 C7.527,2.964 7.489,2.948 7.447,2.948 L6.778,2.948 C6.679,2.948 6.599,3.033 6.599,3.138 L6.599,3.539 C6.599,3.643 6.679,3.728 6.778,3.728 ZM15.998,11.690 C15.998,11.682 15.998,11.675 15.998,11.667 C15.998,11.633 15.989,11.602 15.974,11.574 C15.920,11.424 15.783,11.316 15.621,11.316 L13.846,11.316 L13.846,4.084 C13.846,3.980 13.766,3.895 13.667,3.895 L13.482,3.895 C13.470,3.892 13.458,3.891 13.445,3.891 L10.825,3.891 L10.825,2.428 C10.825,2.371 10.801,2.317 10.758,2.281 L8.135,0.055 C8.070,0.000 7.977,0.000 7.912,0.055 L5.250,2.304 C5.208,2.340 5.183,2.394 5.183,2.452 L5.183,3.895 L2.341,3.895 C2.243,3.895 2.162,3.980 2.162,4.084 L2.162,11.316 L0.379,11.316 C0.221,11.316 0.085,11.419 0.029,11.565 C0.011,11.595 0.000,11.630 0.000,11.667 C0.000,11.681 0.001,11.693 0.001,11.707 C0.001,11.710 0.000,11.714 0.000,11.717 C0.000,11.722 0.001,11.727 0.002,11.733 C0.018,13.951 0.853,16.025 2.361,17.581 C3.094,18.339 3.952,18.936 4.911,19.354 C5.898,19.783 6.944,20.000 8.019,20.000 C10.158,20.000 12.160,19.141 13.658,17.581 C15.146,16.034 15.973,13.971 15.996,11.760 C15.997,11.746 16.000,11.732 16.000,11.717 C16.000,11.708 15.998,11.699 15.998,11.690 ZM10.825,4.670 L13.111,4.670 L13.111,11.316 L10.825,11.316 L10.825,4.670 ZM2.899,4.672 L5.183,4.672 L5.183,11.316 L2.899,11.316 L2.899,4.672 ZM2.032,15.923 C1.306,14.827 0.852,13.524 0.771,12.117 L4.031,12.117 C3.994,12.590 3.964,13.391 4.053,14.359 C4.078,14.643 4.114,14.921 4.157,15.195 C3.122,15.460 2.383,15.764 2.032,15.923 ZM2.519,16.577 C2.884,16.422 3.498,16.190 4.305,15.981 C4.374,16.287 4.455,16.585 4.546,16.874 C4.749,17.517 5.009,18.112 5.319,18.657 C4.231,18.203 3.273,17.484 2.519,16.577 ZM7.754,19.192 C7.314,19.175 6.884,19.119 6.467,19.024 C6.459,19.010 6.451,18.995 6.442,18.982 C5.697,17.986 5.277,16.844 5.041,15.810 C5.232,15.771 5.430,15.734 5.636,15.701 C6.334,15.587 7.047,15.524 7.760,15.513 C7.759,16.702 7.757,18.023 7.754,19.192 ZM5.506,14.913 C5.293,14.948 5.088,14.986 4.891,15.026 C4.851,14.768 4.821,14.521 4.800,14.292 C4.710,13.329 4.748,12.532 4.782,12.117 L7.752,12.117 C7.758,12.493 7.760,13.483 7.760,14.711 C7.006,14.724 6.250,14.790 5.506,14.913 ZM5.918,11.316 L5.918,2.733 L8.023,0.957 L10.091,2.709 L10.091,11.316 L5.918,11.316 ZM8.502,12.117 L11.300,12.117 C11.334,12.532 11.372,13.320 11.284,14.280 C11.262,14.517 11.231,14.774 11.189,15.044 C10.612,14.919 10.028,14.829 9.439,14.773 C9.131,14.744 8.821,14.726 8.509,14.716 C8.510,14.086 8.509,13.556 8.508,13.136 C8.508,12.755 8.506,12.459 8.504,12.257 L8.502,12.133 C8.502,12.127 8.502,12.123 8.502,12.117 ZM9.626,19.009 C9.261,19.096 8.886,19.154 8.503,19.180 C8.504,18.509 8.507,17.136 8.508,15.775 C8.508,15.689 8.508,15.604 8.508,15.520 C9.365,15.550 10.209,15.653 11.037,15.831 C10.801,16.859 10.381,17.991 9.642,18.983 C9.636,18.991 9.631,19.000 9.626,19.009 ZM10.779,18.626 C11.082,18.088 11.336,17.502 11.535,16.872 C11.624,16.593 11.702,16.304 11.769,16.009 C12.349,16.165 12.919,16.358 13.479,16.588 C12.748,17.470 11.826,18.173 10.779,18.626 ZM13.968,15.932 C13.298,15.645 12.615,15.408 11.921,15.221 C11.966,14.938 12.002,14.650 12.029,14.357 C12.117,13.391 12.087,12.587 12.051,12.117 L15.227,12.117 C15.147,13.528 14.693,14.834 13.968,15.932 Z"/></svg>