<svg  xmlns="http://www.w3.org/2000/svg" xmlns:xlink="http://www.w3.org/1999/xlink" width="20px" height="20px"><path fill-rule="evenodd"  fill="rgb(255, 255, 255)" d="M18.261,10.619 L18.261,19.130 C18.261,19.611 17.871,20.000 17.391,20.000 C16.911,20.000 16.521,19.611 16.521,19.130 L16.521,10.619 C16.521,10.139 16.911,9.750 17.391,9.750 C17.871,9.750 18.261,10.139 18.261,10.619 ZM17.391,2.484 C17.871,2.484 18.261,2.094 18.261,1.614 L18.261,0.870 C18.261,0.389 17.871,0.000 17.391,0.000 C16.911,0.000 16.521,0.389 16.521,0.870 L16.521,1.614 C16.521,2.094 16.911,2.484 17.391,2.484 ZM5.189,10.000 C5.189,11.443 4.025,12.616 2.595,12.616 C1.164,12.616 0.000,11.443 0.000,10.000 C0.000,8.557 1.164,7.384 2.595,7.384 C4.025,7.384 5.189,8.557 5.189,10.000 ZM3.450,10.000 C3.450,9.516 3.066,9.123 2.595,9.123 C2.123,9.123 1.739,9.516 1.739,10.000 C1.739,10.484 2.123,10.877 2.595,10.877 C3.066,10.877 3.450,10.484 3.450,10.000 ZM12.595,14.277 C12.595,15.720 11.431,16.893 10.000,16.893 C8.569,16.893 7.405,15.720 7.405,14.277 C7.405,12.834 8.569,11.661 10.000,11.661 C11.431,11.661 12.595,12.834 12.595,14.277 ZM10.855,14.277 C10.855,13.793 10.472,13.400 10.000,13.400 C9.528,13.400 9.145,13.793 9.145,14.277 C9.145,14.761 9.528,15.154 10.000,15.154 C10.472,15.154 10.855,14.761 10.855,14.277 ZM20.000,6.224 C20.000,7.667 18.836,8.841 17.405,8.841 C15.975,8.841 14.811,7.667 14.811,6.224 C14.811,4.782 15.975,3.608 17.405,3.608 C18.836,3.608 20.000,4.782 20.000,6.224 ZM18.261,6.224 C18.261,5.741 17.877,5.347 17.405,5.347 C16.934,5.347 16.550,5.741 16.550,6.224 C16.550,6.708 16.934,7.102 17.405,7.102 C17.877,7.102 18.261,6.708 18.261,6.224 ZM10.000,17.761 C9.519,17.761 9.130,18.150 9.130,18.630 L9.130,19.130 C9.130,19.611 9.519,20.000 10.000,20.000 C10.480,20.000 10.869,19.611 10.869,19.130 L10.869,18.630 C10.869,18.150 10.480,17.761 10.000,17.761 ZM10.000,10.588 C10.480,10.588 10.869,10.199 10.869,9.719 L10.869,0.870 C10.869,0.389 10.480,0.000 10.000,0.000 C9.519,0.000 9.130,0.389 9.130,0.870 L9.130,9.719 C9.130,10.199 9.519,10.588 10.000,10.588 ZM2.608,13.756 C2.128,13.756 1.739,14.145 1.739,14.625 L1.739,19.130 C1.739,19.611 2.128,20.000 2.608,20.000 C3.089,20.000 3.478,19.611 3.478,19.130 L3.478,14.625 C3.478,14.145 3.089,13.756 2.608,13.756 ZM2.608,6.288 C3.089,6.288 3.478,5.899 3.478,5.418 L3.478,0.870 C3.478,0.389 3.089,0.000 2.608,0.000 C2.128,0.000 1.739,0.389 1.739,0.870 L1.739,5.418 C1.739,5.898 2.128,6.288 2.608,6.288 Z"/></svg>