<svg  xmlns="http://www.w3.org/2000/svg" xmlns:xlink="http://www.w3.org/1999/xlink" width="16px" height="20px"><path fill-rule="evenodd"  fill="rgb(255, 255, 255)" d="M11.660,17.741 L11.648,17.750 L8.409,19.850 C8.307,19.942 8.156,20.000 8.017,20.000 C7.755,20.000 7.527,19.872 7.377,19.644 L7.370,19.636 C7.268,19.463 7.230,19.266 7.268,19.081 C7.306,18.886 7.423,18.721 7.596,18.613 L10.798,16.506 C13.276,14.726 14.534,13.355 14.534,10.816 L14.534,4.238 C13.161,3.941 10.962,3.252 7.968,1.664 C4.666,3.371 2.500,4.006 1.406,4.241 L1.406,10.816 C1.406,13.373 2.735,14.789 5.184,16.502 L5.762,16.842 C6.114,17.054 6.214,17.495 5.993,17.866 C5.782,18.222 5.346,18.323 4.978,18.099 L4.974,18.094 L4.431,17.745 C2.839,16.625 1.867,15.732 1.187,14.764 C0.376,13.612 0.000,12.358 0.000,10.816 L0.000,3.597 C0.000,3.230 0.235,2.937 0.585,2.865 L0.600,2.863 C1.408,2.753 3.714,2.266 7.658,0.145 C7.879,-0.000 8.123,-0.000 8.344,0.145 C12.218,2.255 14.569,2.749 15.400,2.863 L15.413,2.865 L15.426,2.868 C15.705,2.937 16.000,3.216 16.000,3.597 L16.000,10.816 C16.000,13.950 14.412,15.730 11.660,17.741 ZM3.891,10.031 C3.891,9.604 4.199,9.293 4.622,9.293 L7.244,9.293 L7.244,6.643 C7.244,6.209 7.545,5.905 7.975,5.905 C8.397,5.905 8.705,6.216 8.705,6.643 L8.705,9.291 L11.334,9.291 C11.757,9.291 12.065,9.602 12.065,10.029 C12.065,10.456 11.757,10.767 11.334,10.767 L8.708,10.767 L8.708,13.420 C8.708,13.854 8.406,14.158 7.977,14.158 C7.547,14.158 7.246,13.854 7.248,13.420 L7.248,10.769 L4.622,10.769 C4.199,10.769 3.891,10.459 3.891,10.031 Z"/></svg>