<svg  xmlns="http://www.w3.org/2000/svg" xmlns:xlink="http://www.w3.org/1999/xlink" width="20px" height="20px"><path fill-rule="evenodd"  fill="rgb(0, 113, 211)" d="M15.263,11.721 L15.263,16.995 L10.000,20.000 L4.737,16.995 L4.737,11.721 L0.000,9.016 L0.000,3.006 L5.263,0.000 L10.000,2.705 L14.737,0.001 L20.000,3.005 L20.000,9.016 L15.263,11.721 ZM9.473,3.628 L5.263,1.244 L1.053,3.628 L1.053,8.395 L5.263,10.674 L8.318,9.020 L8.316,9.016 L9.473,8.304 L9.473,3.628 ZM10.000,9.327 L8.948,9.948 L8.933,9.926 L6.936,11.066 L6.948,11.088 L5.895,11.710 L5.895,16.373 L10.000,18.757 L14.106,16.373 L14.106,11.710 L10.000,9.327 ZM18.948,3.628 L14.737,1.244 L10.527,3.628 L10.527,4.871 L10.526,4.871 L10.526,6.943 L10.527,6.943 L10.527,8.280 L13.670,10.075 L13.684,10.052 L14.737,10.674 L18.948,8.395 L18.948,3.628 ZM13.158,6.011 C13.158,5.182 13.895,4.457 14.737,4.457 C15.579,4.457 16.316,5.182 16.316,6.011 C16.316,6.840 15.579,7.565 14.737,7.565 C13.895,7.565 13.158,6.840 13.158,6.011 ZM15.369,6.011 C15.369,5.700 15.053,5.389 14.737,5.389 C14.421,5.389 14.106,5.700 14.106,6.011 C14.106,6.322 14.421,6.633 14.737,6.633 C15.053,6.633 15.369,6.322 15.369,6.011 ZM10.105,15.441 C9.263,15.441 8.526,14.716 8.526,13.886 C8.526,13.057 9.263,12.332 10.105,12.332 C10.947,12.332 11.685,13.057 11.685,13.886 C11.685,14.715 10.948,15.441 10.105,15.441 ZM10.105,13.265 C9.789,13.265 9.474,13.575 9.474,13.886 C9.474,14.197 9.789,14.508 10.105,14.508 C10.421,14.508 10.737,14.197 10.737,13.886 C10.737,13.472 10.527,13.265 10.105,13.265 ZM5.263,7.565 C4.421,7.565 3.684,6.840 3.684,6.011 C3.684,5.182 4.421,4.457 5.263,4.457 C6.105,4.457 6.842,5.182 6.842,6.011 C6.842,6.840 6.105,7.565 5.263,7.565 ZM5.263,5.389 C4.947,5.389 4.632,5.700 4.632,6.011 C4.632,6.322 4.947,6.633 5.263,6.633 C5.579,6.633 5.895,6.322 5.895,6.011 C5.895,5.700 5.684,5.389 5.263,5.389 Z"/></svg>