<svg  xmlns="http://www.w3.org/2000/svg" xmlns:xlink="http://www.w3.org/1999/xlink" width="24px" height="20px"><path fill-rule="evenodd"  fill="rgb(0, 113, 211)" d="M21.600,20.000 L2.400,20.000 C1.075,20.000 0.000,18.881 0.000,17.500 L0.000,2.500 C0.000,1.119 1.075,0.000 2.400,0.000 L18.000,0.000 C19.325,0.000 20.400,1.119 20.400,2.500 L20.400,3.750 L21.600,3.750 C22.925,3.750 24.000,4.869 24.000,6.250 L24.000,17.500 C24.000,18.881 22.925,20.000 21.600,20.000 L21.600,20.000 ZM19.200,17.500 L19.200,2.500 C19.200,1.809 18.663,1.250 18.000,1.250 L2.400,1.250 C1.737,1.250 1.200,1.809 1.200,2.500 L1.200,17.500 C1.200,18.191 1.737,18.750 2.400,18.750 L19.533,18.750 C19.327,18.381 19.200,17.957 19.200,17.500 L19.200,17.500 ZM22.800,6.250 C22.800,5.559 22.263,5.000 21.600,5.000 L20.400,5.000 L20.400,17.500 C20.400,18.191 20.937,18.750 21.600,18.750 C22.263,18.750 22.800,18.191 22.800,17.500 L22.800,6.250 ZM4.800,5.625 L8.400,5.625 L8.400,10.625 L3.600,10.625 L3.600,5.625 L4.800,5.625 L4.800,5.625 ZM4.800,9.375 L7.200,9.375 L7.200,6.875 L4.800,6.875 L4.800,9.375 L4.800,9.375 ZM16.800,14.375 L3.600,14.375 L3.600,13.125 L16.800,13.125 L16.800,14.375 L16.800,14.375 ZM9.600,9.375 L16.800,9.375 L16.800,10.625 L9.600,10.625 L9.600,9.375 ZM9.600,5.625 L16.800,5.625 L16.800,6.875 L9.600,6.875 L9.600,5.625 Z"/></svg>