<svg  xmlns="http://www.w3.org/2000/svg" xmlns:xlink="http://www.w3.org/1999/xlink" width="14px" height="14px"><path fill-rule="evenodd"  fill="rgb(0, 113, 211)" d="M13.696,4.487 L9.513,0.304 C9.318,0.109 9.055,0.000 8.780,0.000 L1.037,0.000 C0.464,0.000 -0.000,0.464 -0.000,1.037 L-0.000,12.963 C-0.000,13.536 0.464,14.000 1.037,14.000 L12.963,14.000 C13.536,14.000 14.000,13.536 14.000,12.963 L14.000,5.221 C14.000,4.946 13.891,4.682 13.696,4.487 ZM3.370,1.037 L6.481,1.037 L6.481,2.852 L3.370,2.852 L3.370,1.037 ZM10.630,12.963 L3.370,12.963 L3.370,10.630 L10.630,10.630 L10.630,12.963 ZM12.963,12.963 L11.667,12.963 L11.667,10.111 C11.667,9.825 11.435,9.593 11.148,9.593 L2.852,9.593 C2.565,9.593 2.333,9.825 2.333,10.111 L2.333,12.963 L1.037,12.963 L1.037,1.037 L2.333,1.037 L2.333,3.370 C2.333,3.657 2.565,3.889 2.852,3.889 L7.000,3.889 C7.286,3.889 7.518,3.657 7.518,3.370 L7.518,1.037 L8.780,1.037 L12.963,5.221 L12.963,12.963 Z"/></svg>