<svg  xmlns="http://www.w3.org/2000/svg" xmlns:xlink="http://www.w3.org/1999/xlink" width="14px" height="14px"><path fill-rule="evenodd"  fill="rgb(255, 255, 255)" d="M12.263,13.912 C12.172,13.912 12.083,13.892 12.000,13.855 L7.043,11.604 L1.985,13.857 C1.663,14.000 1.286,13.855 1.143,13.532 C1.070,13.368 1.069,13.181 1.141,13.017 L3.055,8.627 L0.215,4.926 C0.000,4.647 0.052,4.246 0.331,4.031 C0.443,3.945 0.580,3.898 0.720,3.898 L4.646,3.898 L6.479,0.346 C6.588,0.133 6.806,-0.000 7.045,-0.000 L7.045,-0.000 C7.284,0.000 7.503,0.134 7.612,0.346 L9.438,3.898 L13.362,3.898 C13.714,3.898 14.000,4.184 14.000,4.537 C14.000,4.678 13.953,4.815 13.868,4.927 L10.792,8.932 C10.577,9.212 10.177,9.264 9.898,9.049 C9.619,8.834 9.566,8.432 9.781,8.153 L12.067,5.176 L9.049,5.176 C8.810,5.176 8.591,5.043 8.482,4.830 L7.044,2.033 L5.601,4.831 C5.492,5.043 5.273,5.176 5.034,5.176 L2.016,5.176 L4.296,8.147 C4.438,8.332 4.468,8.579 4.375,8.793 L2.968,12.020 L6.786,10.320 C6.952,10.246 7.142,10.247 7.308,10.322 L10.890,11.948 L10.429,11.022 C10.271,10.707 10.399,10.323 10.714,10.165 C11.029,10.008 11.413,10.136 11.570,10.451 L12.834,12.987 C12.955,13.229 12.910,13.521 12.723,13.716 C12.602,13.841 12.437,13.912 12.263,13.912 L12.263,13.912 Z"/></svg>