<svg  xmlns="http://www.w3.org/2000/svg" xmlns:xlink="http://www.w3.org/1999/xlink" width="20px" height="20px"><path fill-rule="evenodd"  fill="rgb(0, 113, 211)" d="M14.681,12.983 C13.594,12.983 12.710,13.864 12.710,14.946 C12.710,16.028 13.594,16.909 14.681,16.909 C15.767,16.909 16.651,16.028 16.651,14.946 C16.651,13.864 15.767,12.983 14.681,12.983 ZM14.681,15.898 C14.154,15.898 13.725,15.470 13.725,14.946 C13.725,14.421 14.154,13.994 14.681,13.994 C15.207,13.994 15.636,14.421 15.636,14.946 C15.636,15.470 15.207,15.898 14.681,15.898 ZM19.890,13.920 C19.817,13.531 19.566,13.280 19.244,13.280 L19.200,13.280 C18.585,13.280 18.084,12.781 18.084,12.168 C18.084,12.007 18.154,11.810 18.181,11.748 C18.334,11.406 18.217,10.986 17.878,10.754 L16.573,10.033 C16.469,9.989 16.358,9.966 16.245,9.967 C16.008,9.967 15.776,10.063 15.620,10.223 C15.458,10.390 15.026,10.734 14.729,10.734 C14.429,10.734 13.994,10.383 13.831,10.214 C13.665,10.046 13.438,9.951 13.201,9.952 C13.087,9.952 12.979,9.974 12.881,10.016 L12.856,10.026 L11.529,10.753 L11.497,10.774 C11.188,10.993 11.073,11.397 11.222,11.745 C11.233,11.769 11.321,11.984 11.321,12.169 C11.321,12.782 10.821,13.280 10.206,13.280 L10.153,13.280 C9.840,13.280 9.589,13.532 9.515,13.921 C9.504,13.981 9.405,14.518 9.405,14.953 C9.405,15.388 9.504,15.925 9.515,15.986 C9.589,16.375 9.839,16.626 10.161,16.626 L10.205,16.626 C10.820,16.626 11.321,17.124 11.321,17.737 C11.321,17.898 11.250,18.096 11.224,18.158 C11.072,18.499 11.188,18.919 11.526,19.153 L12.806,19.863 C13.136,20.000 13.517,19.920 13.765,19.663 C13.922,19.492 14.370,19.119 14.675,19.119 C14.984,19.119 15.427,19.493 15.592,19.674 C15.748,19.843 15.986,19.945 16.228,19.945 C16.343,19.945 16.451,19.923 16.583,19.865 L17.877,19.152 L17.908,19.132 C18.217,18.913 18.331,18.509 18.182,18.161 C18.172,18.136 18.084,17.922 18.084,17.737 C18.084,17.124 18.585,16.625 19.200,16.625 L19.251,16.625 C19.566,16.625 19.817,16.374 19.890,15.986 C19.891,15.981 20.000,15.410 20.000,14.953 C20.000,14.518 19.901,13.981 19.890,13.920 L19.890,13.920 ZM18.920,15.632 C17.861,15.771 17.069,16.672 17.069,17.737 C17.069,17.985 17.130,18.220 17.182,18.380 L16.249,18.894 C16.128,18.776 16.000,18.667 15.864,18.566 C15.452,18.261 15.052,18.106 14.677,18.106 C14.304,18.106 13.908,18.259 13.498,18.558 C13.364,18.656 13.236,18.764 13.116,18.879 L12.223,18.382 C12.277,18.222 12.337,17.985 12.337,17.737 C12.337,16.672 11.546,15.771 10.486,15.632 C10.448,15.407 10.427,15.181 10.421,14.953 C10.421,14.728 10.458,14.447 10.486,14.274 C11.546,14.135 12.337,13.235 12.337,12.170 C12.337,11.922 12.277,11.687 12.224,11.527 L13.188,11.001 C13.272,11.079 13.406,11.197 13.570,11.314 C13.975,11.602 14.365,11.747 14.729,11.747 C15.090,11.747 15.477,11.604 15.879,11.322 C16.043,11.208 16.175,11.092 16.259,11.015 L17.182,11.526 C17.111,11.733 17.073,11.951 17.069,12.170 C17.069,13.235 17.861,14.135 18.920,14.274 C18.948,14.451 18.985,14.732 18.985,14.953 C18.985,15.176 18.948,15.456 18.920,15.632 L18.920,15.632 ZM1.317,18.507 L1.317,17.394 C1.317,13.614 4.243,10.499 7.971,10.148 L7.970,10.147 L7.980,10.147 C8.208,10.126 8.439,10.114 8.674,10.114 C8.709,10.114 8.744,10.115 8.779,10.116 C9.603,10.052 10.851,9.859 11.503,9.280 L11.822,9.032 C13.069,8.062 13.783,6.613 13.783,5.057 C13.782,2.268 11.489,0.000 8.671,0.000 C5.854,0.000 3.561,2.268 3.561,5.057 C3.561,6.612 4.276,8.062 5.523,9.032 L5.842,9.280 L5.466,9.428 C2.146,10.742 0.000,13.869 0.000,17.395 L0.000,19.158 C0.000,19.516 0.295,19.808 0.659,19.808 L10.280,19.808 C9.966,19.406 9.699,18.970 9.484,18.507 L1.317,18.507 L1.317,18.507 ZM4.878,5.057 C4.878,2.986 6.580,1.301 8.671,1.301 C10.763,1.301 12.466,2.986 12.466,5.057 C12.466,7.128 10.763,8.812 8.671,8.812 C6.580,8.812 4.878,7.128 4.878,5.057 Z"/></svg>