<svg  xmlns="http://www.w3.org/2000/svg" xmlns:xlink="http://www.w3.org/1999/xlink" width="14px" height="16px"><path fill-rule="evenodd"  fill="rgb(0, 73, 188)" d="M14.000,13.921 C14.000,15.850 8.642,16.000 7.000,16.000 C5.358,16.000 0.000,15.850 0.000,13.921 C0.000,11.488 1.585,9.268 3.958,8.222 C2.905,7.117 2.249,5.581 2.249,4.268 C2.249,1.915 4.391,-0.000 7.024,-0.000 C9.657,-0.000 11.799,1.915 11.799,4.268 C11.799,5.580 11.145,7.113 10.095,8.217 C12.438,9.275 14.000,11.496 14.000,13.921 ZM10.636,4.268 C10.636,2.488 9.016,1.039 7.024,1.039 C5.032,1.039 3.412,2.488 3.412,4.268 C3.412,5.541 4.153,6.946 5.139,7.812 L5.317,7.763 L5.565,8.011 C5.728,8.173 5.897,8.297 6.070,8.402 C6.384,8.542 6.704,8.642 7.024,8.642 C7.293,8.642 7.562,8.571 7.828,8.470 C8.047,8.356 8.264,8.203 8.475,7.994 L8.725,7.745 L8.923,7.801 C9.903,6.934 10.636,5.535 10.636,4.268 ZM9.177,8.990 C8.882,9.182 8.570,9.339 8.239,9.453 C7.847,9.631 7.440,9.733 7.024,9.733 C6.534,9.733 6.061,9.603 5.616,9.372 C5.360,9.268 5.113,9.147 4.879,8.995 C2.672,9.781 1.163,11.748 1.163,13.921 C1.163,14.208 2.958,14.961 7.000,14.961 C11.042,14.961 12.837,14.208 12.837,13.921 C12.837,11.756 11.352,9.791 9.177,8.990 ZM7.192,2.319 C5.914,2.319 4.875,3.249 4.875,4.391 C4.875,4.534 4.745,4.651 4.584,4.651 C4.424,4.651 4.294,4.534 4.294,4.391 C4.294,2.962 5.594,1.800 7.192,1.800 C7.353,1.800 7.483,1.916 7.483,2.060 C7.483,2.203 7.353,2.319 7.192,2.319 ZM4.890,5.204 C4.945,5.253 4.977,5.321 4.977,5.388 C4.977,5.459 4.945,5.523 4.890,5.573 C4.837,5.622 4.762,5.648 4.686,5.648 C4.608,5.648 4.535,5.622 4.480,5.573 C4.425,5.523 4.395,5.456 4.395,5.388 C4.395,5.321 4.425,5.253 4.480,5.204 C4.587,5.108 4.782,5.108 4.890,5.204 Z"/></svg>