<svg  xmlns="http://www.w3.org/2000/svg" xmlns:xlink="http://www.w3.org/1999/xlink" width="15px" height="16px"><path fill-rule="evenodd"  fill="rgb(7, 117, 212)" d="M14.831,4.141 L6.011,12.808 C5.919,12.898 5.802,12.949 5.683,12.960 L1.649,13.645 C1.619,13.651 1.587,13.653 1.558,13.653 C1.415,13.653 1.278,13.598 1.177,13.497 C1.054,13.374 1.000,13.200 1.032,13.030 L1.814,9.106 C1.835,8.987 1.899,8.883 1.984,8.809 L10.785,0.166 C10.894,0.058 11.039,-0.000 11.192,-0.000 C11.345,-0.000 11.490,0.058 11.599,0.166 L14.833,3.344 C14.942,3.451 15.000,3.592 15.000,3.742 C15.000,3.892 14.940,4.034 14.831,4.141 ZM2.836,9.464 L2.226,12.481 L5.376,11.947 L11.563,5.867 L9.031,3.377 L2.836,9.464 ZM11.190,1.254 L9.787,2.632 L12.321,5.122 L13.724,3.744 L11.190,1.254 ZM1.515,15.000 L14.276,15.000 C14.998,15.000 15.000,16.000 14.276,16.000 L1.520,16.000 C0.746,16.000 0.743,15.000 1.515,15.000 Z"/></svg>